# xmcd
#
# Track frame offsets: 
#        150
#        13702
#        30854
#        49547
#        54499
#        81051
#        86492
#        101154
#        123472
#
# Disc length: 1783 seconds
#
# Revision: 0
# Processed by: cddbd v1.5.2PL0 Copyright (c) Steve Scherf et al.
# Submitted via: ExactAudioCopyFreeDBPlugin 1.0
#
DISCID=6206f509
DTITLE=Kleptomaanit - Tarjoamme Mahdollisuuden
DYEAR=2003
DGENRE=Rap
TTITLE0=Kehiin
TTITLE1=Klp
TTITLE2=Letkeilyä
TTITLE3=Skitti
TTITLE4=Oma Valinta
TTITLE5=Interlude (feat. Kaos)
TTITLE6=Tuhat Tapaa Tappaa MC
TTITLE7=Sanoista Lauseiks
TTITLE8=Kehistä
EXTD=
EXTT0=
EXTT1=
EXTT2=
EXTT3=
EXTT4=
EXTT5=
EXTT6=
EXTT7=
EXTT8=
PLAYORDER=
